<svg width="832.178" height="165.186" viewBox="0 0 832.178 165.186" xmlns="http://www.w3.org/2000/svg"><g id="svgGroup" stroke-linecap="round" fill-rule="evenodd" font-size="9pt" stroke="#000" stroke-width="0.25mm" fill="#000" style="stroke:#000;stroke-width:0.25mm;fill:#000"><path d="M 39.209 61.182 L 39.209 69.873 Q 39.209 91.576 41.344 104.345 A 83.831 83.831 0 0 0 41.846 107.08 Q 43.067 112.988 45.117 117.676 Q 60.254 90.283 65.381 72.217 A 98.609 98.609 0 0 0 68.815 54.282 A 85.465 85.465 0 0 0 69.19 46.338 A 51.073 51.073 0 0 0 66.586 30.55 A 68.147 68.147 0 0 0 62.354 20.459 A 37.888 37.888 0 0 0 57.776 13.495 A 27.45 27.45 0 0 0 49.61 6.787 Q 45.557 4.688 40.625 4.688 A 5.896 5.896 0 0 0 39.423 4.804 A 4.357 4.357 0 0 0 38.11 5.298 Q 37.307 5.765 36.803 6.046 A 31.274 31.274 0 0 1 36.524 6.201 L 35.01 10.791 A 4.595 4.595 0 0 1 34.391 11.759 A 2.784 2.784 0 0 1 32.178 12.793 A 1.523 1.523 0 0 1 31.355 12.579 Q 30.772 12.215 30.581 11.234 A 4.704 4.704 0 0 1 30.518 10.791 A 17.582 17.582 0 0 0 31.006 8.862 A 20.622 20.622 0 0 1 31.494 6.885 Q 33.315 0.129 41.741 0.002 A 21.583 21.583 0 0 1 42.066 0 A 21.317 21.317 0 0 1 54.108 3.791 A 30.179 30.179 0 0 1 58.203 7.104 A 47.563 47.563 0 0 1 67.833 20.306 A 57.134 57.134 0 0 1 69.824 24.756 A 70.473 70.473 0 0 1 72.383 32.336 Q 73.408 36.113 73.793 39.532 A 35.573 35.573 0 0 1 74.024 43.506 Q 74.024 79.443 49.61 119.189 A 30.808 30.808 0 0 1 48.341 121.114 Q 46.324 123.917 44.741 124.374 A 2.159 2.159 0 0 1 44.141 124.463 Q 41.895 124.463 39.014 114.307 Q 35.044 99.575 34.66 74.563 A 356.74 356.74 0 0 1 34.619 69.092 A 357.16 357.16 0 0 1 28.778 87.661 Q 25.65 96.685 22.343 104.361 A 176.196 176.196 0 0 1 18.311 113.086 A 1063.208 1063.208 0 0 0 15.283 119.092 Q 12.305 125 9.082 125 A 1.653 1.653 0 0 1 7.904 124.509 A 2.576 2.576 0 0 1 7.593 124.146 Q 6.983 123.291 6.983 121.777 A 269.8 269.8 0 0 0 6.573 106.606 A 214.713 214.713 0 0 0 5.689 95.703 A 1715.114 1715.114 0 0 0 5.066 90.009 Q 4.449 84.457 3.936 80.23 A 514.997 514.997 0 0 0 3.491 76.66 Q 2.588 69.629 1.294 57.788 A 217.816 217.816 0 0 1 0.182 42.348 A 262.108 262.108 0 0 1 0 32.471 A 11.776 11.776 0 0 1 0.068 31.153 Q 0.22 29.811 0.711 29.062 A 2.156 2.156 0 0 1 1.245 28.491 Q 2.294 27.73 3.048 27.61 A 1.733 1.733 0 0 1 3.32 27.588 A 1.677 1.677 0 0 1 3.961 27.701 Q 4.69 28 4.774 29.094 A 3.908 3.908 0 0 1 4.785 29.395 L 4.297 35.596 A 61.094 61.094 0 0 0 4.351 38.047 Q 4.398 39.23 4.489 40.577 A 137.741 137.741 0 0 0 4.712 43.433 Q 5.127 48.145 5.444 55.103 A 101.637 101.637 0 0 0 5.699 58.838 Q 6.36 66.744 8.496 83.472 Q 11.231 104.883 11.817 116.504 A 4842.533 4842.533 0 0 1 13.934 111.945 A 3805.609 3805.609 0 0 1 15.894 107.739 Q 17.774 103.711 19.483 99.707 Q 26.172 83.984 34.424 53.076 A 304.642 304.642 0 0 1 34.335 49.107 Q 34.306 47.356 34.292 45.443 A 534.036 534.036 0 0 1 34.277 41.455 A 74.389 74.389 0 0 1 34.353 37.982 Q 34.545 33.881 35.23 31.494 Q 35.693 29.879 36.485 29.05 A 2.715 2.715 0 0 1 38.526 28.174 A 1.784 1.784 0 0 1 40.052 29.146 Q 41.061 30.745 41.26 34.972 A 47.722 47.722 0 0 1 41.309 37.207 Q 41.309 42.632 39.436 51.285 A 145.568 145.568 0 0 1 39.014 53.174 A 760.709 760.709 0 0 1 39.095 55.717 Q 39.209 59.537 39.209 61.182 Z M 365.723 128.906 L 370.606 125.195 A 40.956 40.956 0 0 1 370.9 124.105 Q 371.738 121.124 374.317 112.793 Q 377.032 104.019 377.818 101.323 A 53.302 53.302 0 0 0 378.027 100.586 A 77.7 77.7 0 0 1 374.687 108.856 Q 371.587 115.352 367.725 119.678 Q 363.91 123.947 360.433 124.245 A 6.087 6.087 0 0 1 359.912 124.268 A 7.4 7.4 0 0 1 354.308 121.863 A 9.525 9.525 0 0 1 353.809 121.289 A 9.916 9.916 0 0 1 352.091 117.96 Q 351.669 116.591 351.511 114.953 A 21.466 21.466 0 0 1 351.416 112.891 Q 351.416 106.468 354.215 94.39 A 264.024 264.024 0 0 1 356.201 86.426 A 719.471 719.471 0 0 0 356.762 84.308 Q 358.491 77.736 358.588 76.757 A 1.012 1.012 0 0 0 358.594 76.66 A 7.818 7.818 0 0 1 358.554 76.32 Q 358.477 75.499 358.632 75.025 A 1.137 1.137 0 0 1 358.789 74.707 A 5.827 5.827 0 0 1 359.722 73.703 A 3.639 3.639 0 0 1 362.11 72.803 Q 363.628 72.803 363.936 74.044 A 2.964 2.964 0 0 1 364.014 74.756 A 8.043 8.043 0 0 1 363.889 75.865 Q 363.434 78.69 361.329 87.401 A 901.46 901.46 0 0 1 360.303 91.602 Q 356.592 106.641 356.592 111.743 Q 356.592 116.391 357.625 117.899 A 2.176 2.176 0 0 0 357.837 118.164 A 4.024 4.024 0 0 0 360.749 119.48 A 4.864 4.864 0 0 0 360.889 119.482 A 5.64 5.64 0 0 0 363.712 118.656 Q 365.701 117.513 367.787 114.785 A 31.333 31.333 0 0 0 368.994 113.086 A 41.068 41.068 0 0 0 371.997 107.641 Q 374.381 102.5 376.294 95.459 Q 378.807 86.213 379.995 81.584 A 241.272 241.272 0 0 0 380.444 79.81 A 63.059 63.059 0 0 1 380.912 78.03 Q 381.725 75.129 382.373 74.194 A 2.681 2.681 0 0 1 384.33 73.027 A 3.89 3.89 0 0 1 384.815 72.998 A 3.264 3.264 0 0 1 385.393 73.045 Q 386.391 73.225 386.425 74.108 A 1.637 1.637 0 0 1 386.426 74.17 A 4.571 4.571 0 0 1 386.358 74.746 Q 385.949 77.316 383.09 90.028 A 2501.189 2501.189 0 0 1 382.056 94.604 Q 377.686 113.867 376.123 120.996 A 82.578 82.578 0 0 0 377.966 119.336 A 61.882 61.882 0 0 0 379.59 117.773 A 75.481 75.481 0 0 1 380.677 116.707 Q 381.218 116.187 381.707 115.742 A 38.694 38.694 0 0 1 382.276 115.234 A 6.625 6.625 0 0 1 382.877 114.762 Q 383.532 114.312 384.081 114.228 A 1.628 1.628 0 0 1 384.326 114.209 A 3.02 3.02 0 0 1 385.027 114.283 Q 385.968 114.508 386.142 115.419 A 2.396 2.396 0 0 1 386.182 115.869 A 2.849 2.849 0 0 1 385.861 117.163 A 4.062 4.062 0 0 1 385.401 117.871 A 184.037 184.037 0 0 1 380.066 122.461 A 142.169 142.169 0 0 1 375 126.465 A 360.236 360.236 0 0 1 373.182 135.815 Q 369.968 151.163 366.992 156.885 A 16.831 16.831 0 0 1 364.919 159.995 A 19.437 19.437 0 0 1 364.307 160.693 Q 360.352 165.186 355.274 165.186 A 11.007 11.007 0 0 1 351.788 164.66 A 8.839 8.839 0 0 1 347.412 161.45 A 16.703 16.703 0 0 1 345.771 158.791 Q 344.968 157.14 344.73 155.528 A 9.236 9.236 0 0 1 344.629 154.175 A 24.045 24.045 0 0 1 344.785 151.357 Q 345 149.543 345.508 148.047 A 18.504 18.504 0 0 1 347.901 143.311 A 23.398 23.398 0 0 1 351.465 139.331 A 57.105 57.105 0 0 1 355.841 135.804 A 60.994 60.994 0 0 1 355.86 135.791 Q 358.203 134.082 360.718 132.422 Q 363.233 130.762 365.723 128.906 Z M 577.295 124.463 L 576.66 124.463 Q 576.318 127.734 575.098 128.613 A 1.922 1.922 0 0 1 574.453 128.912 Q 574.107 129.004 573.682 129.004 Q 571.777 129.004 571.777 127.002 Q 571.777 126.254 571.892 124.991 A 57.208 57.208 0 0 1 571.973 124.17 A 75.401 75.401 0 0 0 569.092 123.633 Q 562.744 122.607 562.549 120.654 A 1.718 1.718 0 0 1 562.528 120.512 Q 562.509 120.349 562.503 120.106 A 10.391 10.391 0 0 1 562.5 119.849 A 1.338 1.338 0 0 1 562.599 119.36 Q 562.675 119.166 562.809 118.962 A 3.379 3.379 0 0 1 563.062 118.628 Q 563.57 118.031 564.038 117.975 A 0.814 0.814 0 0 1 564.136 117.969 Q 564.649 117.969 565.186 118.115 A 10.212 10.212 0 0 1 565.578 118.266 Q 566.123 118.487 567.02 118.897 A 92.266 92.266 0 0 1 567.603 119.165 Q 569.336 119.971 572.559 119.971 A 1260.132 1260.132 0 0 1 579.455 88.024 Q 586.179 58.845 592.664 38.549 A 341.481 341.481 0 0 1 594.19 33.887 A 53.09 53.09 0 0 0 586.351 37.214 A 46.05 46.05 0 0 0 583.154 39.062 Q 582.52 39.307 582.08 39.307 A 2.322 2.322 0 0 1 581.394 39.214 Q 580.371 38.897 580.371 37.5 A 2.801 2.801 0 0 1 580.601 36.349 Q 580.901 35.675 581.592 35.205 A 62.469 62.469 0 0 1 590.214 30.731 A 51.513 51.513 0 0 1 596.094 28.662 A 4.775 4.775 0 0 1 596.585 28.085 Q 596.866 27.806 597.154 27.64 A 1.718 1.718 0 0 1 598.023 27.393 Q 599.024 27.393 599.365 27.881 Q 604.053 26.807 609.888 26.807 Q 615.723 26.807 620.752 29.297 Q 632.151 34.977 634.405 51.75 A 67.303 67.303 0 0 1 634.961 60.693 Q 634.961 88.77 620.947 105.908 A 48.867 48.867 0 0 1 598.682 121.147 A 60.544 60.544 0 0 1 595.264 122.217 A 60.99 60.99 0 0 1 585.019 124.092 A 77.846 77.846 0 0 1 577.295 124.463 Z M 433.203 118.896 L 435.791 108.008 A 368.162 368.162 0 0 1 439.185 92.505 A 1772.33 1772.33 0 0 0 442.92 76.709 L 439.893 76.563 A 1.969 1.969 0 0 1 439.269 76.472 Q 438.379 76.175 438.379 74.902 A 1.81 1.81 0 0 1 439.416 73.267 Q 440.75 72.51 443.799 72.51 A 249.123 249.123 0 0 0 446.296 60.545 A 309.053 309.053 0 0 0 447.705 52.246 A 158.073 158.073 0 0 1 449.624 42.059 A 115.016 115.016 0 0 1 452.1 32.764 Q 450.293 33.545 448.779 34.863 Q 447.901 36.67 446.192 36.67 A 1.204 1.204 0 0 1 445.866 36.621 Q 445.567 36.537 445.2 36.308 A 4.546 4.546 0 0 1 445.117 36.255 Q 444.627 35.934 444.515 35.162 A 3.464 3.464 0 0 1 444.483 34.668 Q 444.483 32.814 446.395 31.294 A 9.931 9.931 0 0 1 447.412 30.591 A 19.307 19.307 0 0 1 452.218 28.524 A 23.244 23.244 0 0 1 454.102 28.076 Q 454.512 27.414 455.034 27.179 A 1.462 1.462 0 0 1 455.64 27.051 Q 456.543 27.051 457.178 27.881 A 23.822 23.822 0 0 1 464.111 29.074 A 18.979 18.979 0 0 1 472.07 34.253 A 20.567 20.567 0 0 1 477.022 43.988 A 30.17 30.17 0 0 1 477.686 50.488 A 21.977 21.977 0 0 1 473.64 63.139 A 29.197 29.197 0 0 1 471.558 65.82 A 27.946 27.946 0 0 1 466.648 70.323 A 19.712 19.712 0 0 1 457.813 73.877 Q 466.309 74.414 472.705 81.323 A 28.396 28.396 0 0 1 476.412 86.245 Q 478.555 89.908 478.991 93.708 A 17.086 17.086 0 0 1 479.102 95.654 A 29.399 29.399 0 0 1 477.753 104.804 A 22.918 22.918 0 0 1 468.189 117.09 A 39.424 39.424 0 0 1 457.158 121.996 Q 449.115 124.268 438.623 124.268 L 436.524 124.17 Q 436.182 125.586 436.182 126.563 A 4.137 4.137 0 0 1 435.719 127.844 A 3.684 3.684 0 0 1 435.083 128.662 Q 434.229 129.492 433.447 129.492 Q 431.738 129.492 431.494 127.49 A 36.191 36.191 0 0 1 431.663 126.312 Q 431.857 125.089 432.178 123.486 L 429.346 122.9 Q 423.291 121.68 423.096 119.678 A 1.718 1.718 0 0 1 423.074 119.536 Q 423.056 119.373 423.05 119.129 A 10.391 10.391 0 0 1 423.047 118.872 A 1.338 1.338 0 0 1 423.146 118.383 Q 423.222 118.189 423.356 117.985 A 3.379 3.379 0 0 1 423.609 117.651 Q 424.117 117.055 424.585 116.998 A 0.814 0.814 0 0 1 424.683 116.992 Q 425.195 116.992 425.733 117.139 A 10.092 10.092 0 0 1 426.132 117.293 Q 426.747 117.543 427.778 118.023 A 84.723 84.723 0 0 1 428.027 118.14 A 5.881 5.881 0 0 0 429.088 118.506 Q 430.247 118.797 431.967 118.871 A 28.788 28.788 0 0 0 433.203 118.896 Z M 742.383 125.781 L 739.502 140.479 A 104.754 104.754 0 0 1 737.937 147.314 Q 736.211 153.763 734.052 157.592 A 16.855 16.855 0 0 1 732.031 160.498 Q 728.418 164.502 723.657 164.502 A 11.509 11.509 0 0 1 719.15 163.639 A 10.912 10.912 0 0 1 715.65 161.255 A 10.871 10.871 0 0 1 712.632 155.314 A 15.538 15.538 0 0 1 712.402 152.588 A 16.024 16.024 0 0 1 714.812 144.277 Q 716.808 140.93 720.459 137.744 Q 723.713 134.927 729.213 130.903 A 267.33 267.33 0 0 1 729.273 130.859 Q 734.003 127.4 737.008 124.973 A 92.476 92.476 0 0 0 737.988 124.17 A 134.505 134.505 0 0 1 738.471 121.869 A 176.12 176.12 0 0 1 739.038 119.36 Q 739.649 116.748 740.137 114.6 Q 740.625 112.451 741.113 110.352 A 318.837 318.837 0 0 0 741.583 108.301 A 274.132 274.132 0 0 0 742.017 106.348 Q 742.432 104.443 742.774 103.076 Q 740.283 111.091 737.625 115.495 A 24.564 24.564 0 0 1 737.207 116.162 A 47.479 47.479 0 0 1 735.112 119.121 Q 731.643 123.611 728.964 124.184 A 3.659 3.659 0 0 1 728.198 124.268 A 7.897 7.897 0 0 1 725.148 123.696 A 7.371 7.371 0 0 1 722.241 121.484 Q 720.126 118.891 719.981 114.688 A 18.195 18.195 0 0 1 719.971 114.063 A 51.203 51.203 0 0 1 721.107 103.563 A 66.098 66.098 0 0 1 723.193 95.972 A 55.953 55.953 0 0 1 727.881 85.565 A 46.88 46.88 0 0 1 732.08 79.517 Q 736.083 74.634 740.622 73.202 A 12.756 12.756 0 0 1 744.483 72.607 A 12.775 12.775 0 0 1 748.19 73.13 A 11.153 11.153 0 0 1 750.586 74.17 A 2.788 2.788 0 0 1 751.569 73.893 A 3.424 3.424 0 0 1 751.904 73.877 Q 753.184 73.877 753.447 74.908 A 2.447 2.447 0 0 1 753.516 75.513 Q 753.516 77.148 752.93 78.711 A 28.972 28.972 0 0 0 752.518 79.892 Q 752.318 80.506 752.109 81.218 A 67.112 67.112 0 0 0 751.685 82.739 A 142.034 142.034 0 0 0 751.32 84.135 Q 750.72 86.475 749.805 90.283 A 740.155 740.155 0 0 0 747.412 100.562 Q 746.24 105.762 745.142 110.938 A 899.906 899.906 0 0 1 743.508 118.481 A 802.302 802.302 0 0 1 742.969 120.898 A 33.348 33.348 0 0 0 745.738 118.774 A 38.508 38.508 0 0 0 746.655 117.969 Q 748.395 116.391 749.606 115.409 A 36.25 36.25 0 0 1 749.732 115.308 Q 750.977 114.307 751.856 114.307 A 3.02 3.02 0 0 1 752.556 114.381 Q 753.497 114.606 753.671 115.517 A 2.396 2.396 0 0 1 753.711 115.967 Q 753.711 117.285 752.881 117.969 A 658.023 658.023 0 0 1 749.899 120.233 Q 745.606 123.474 742.383 125.781 Z M 234.619 99.902 L 233.594 105.811 A 112.631 112.631 0 0 0 234.477 103.919 Q 234.863 103.075 235.277 102.138 A 211.266 211.266 0 0 0 236.133 100.171 Q 237.217 97.647 239.103 93.45 A 1125.67 1125.67 0 0 1 240.332 90.723 A 71.601 71.601 0 0 1 244.009 83.631 A 58.809 58.809 0 0 1 246.533 79.736 A 29.447 29.447 0 0 1 248.528 77.148 Q 250.714 74.64 252.746 73.806 A 5.214 5.214 0 0 1 254.736 73.389 A 5.567 5.567 0 0 1 260.052 76.616 Q 261.288 79.021 261.412 83.218 A 32.495 32.495 0 0 1 261.426 84.18 Q 261.426 86.934 260.896 90.614 A 84.478 84.478 0 0 1 260.278 94.287 A 2829.555 2829.555 0 0 1 259.07 100.623 A 3655.297 3655.297 0 0 1 257.739 107.52 Q 256.348 114.697 256.201 119.385 L 255.615 122.07 A 5.756 5.756 0 0 1 255.593 122.598 Q 255.531 123.268 255.298 123.608 A 0.703 0.703 0 0 1 255.024 123.83 Q 254.591 124.047 253.625 124.07 A 9.906 9.906 0 0 1 253.394 124.072 Q 251.957 124.072 251.241 123.592 A 1.757 1.757 0 0 1 251.099 123.486 Q 250.402 122.91 250.627 121.436 A 5.833 5.833 0 0 1 250.635 121.387 L 255.518 92.188 A 109.903 109.903 0 0 0 255.902 89.639 Q 256.276 86.934 256.367 85.059 A 23.218 23.218 0 0 0 256.397 83.936 A 13.235 13.235 0 0 0 256.304 82.293 Q 255.902 79.102 253.76 79.102 A 2.928 2.928 0 0 0 251.997 79.995 Q 248.158 83.345 240.332 99.268 A 369.396 369.396 0 0 0 238.255 103.554 Q 235.411 109.529 234.074 113.02 A 53.44 53.44 0 0 0 234.058 113.062 A 281.256 281.256 0 0 1 233.223 115.221 Q 232.056 118.201 231.397 119.629 A 19.717 19.717 0 0 1 230.85 120.728 Q 230.251 121.838 229.663 122.51 A 3.405 3.405 0 0 1 229.067 123.056 A 2.229 2.229 0 0 1 227.759 123.486 A 3.28 3.28 0 0 1 227.347 123.463 Q 226.916 123.408 226.697 123.226 A 0.602 0.602 0 0 1 226.514 122.974 Q 226.318 122.461 226.318 121.118 Q 226.318 119.945 229.319 103.228 A 3381.292 3381.292 0 0 1 230.249 98.071 A 2022.289 2022.289 0 0 1 231.18 92.967 Q 233.975 77.756 234.671 75.555 A 1.97 1.97 0 0 1 234.79 75.244 A 9.322 9.322 0 0 1 235.088 74.733 Q 235.523 74.042 235.889 73.804 A 1.411 1.411 0 0 1 236.225 73.65 Q 236.592 73.532 237.168 73.499 A 8.39 8.39 0 0 1 237.647 73.486 A 2.637 2.637 0 0 1 238.553 73.635 A 2.262 2.262 0 0 1 239.624 74.463 A 5.243 5.243 0 0 1 239.982 75.023 Q 240.332 75.664 240.332 76.196 A 5.756 5.756 0 0 1 240.137 77.686 A 28.158 28.158 0 0 1 239.847 78.715 Q 239.698 79.21 239.514 79.771 A 63.941 63.941 0 0 1 239.111 80.957 A 68.675 68.675 0 0 0 237.666 85.682 Q 236.317 90.662 235.037 97.585 A 251.727 251.727 0 0 0 234.619 99.902 Z M 537.402 99.902 L 536.377 105.811 A 112.631 112.631 0 0 0 537.261 103.919 Q 537.646 103.075 538.06 102.138 A 211.266 211.266 0 0 0 538.916 100.171 Q 540 97.647 541.886 93.45 A 1125.67 1125.67 0 0 1 543.115 90.723 A 71.601 71.601 0 0 1 546.793 83.631 A 58.809 58.809 0 0 1 549.317 79.736 A 29.447 29.447 0 0 1 551.311 77.148 Q 553.497 74.64 555.529 73.806 A 5.214 5.214 0 0 1 557.52 73.389 A 5.567 5.567 0 0 1 562.836 76.616 Q 564.071 79.021 564.195 83.218 A 32.495 32.495 0 0 1 564.209 84.18 Q 564.209 86.934 563.679 90.614 A 84.478 84.478 0 0 1 563.062 94.287 A 2829.555 2829.555 0 0 1 561.853 100.623 A 3655.297 3655.297 0 0 1 560.523 107.52 Q 559.131 114.697 558.985 119.385 L 558.399 122.07 A 5.756 5.756 0 0 1 558.376 122.598 Q 558.314 123.268 558.081 123.608 A 0.703 0.703 0 0 1 557.807 123.83 Q 557.374 124.047 556.409 124.07 A 9.906 9.906 0 0 1 556.177 124.072 Q 554.74 124.072 554.024 123.592 A 1.757 1.757 0 0 1 553.882 123.486 Q 553.186 122.91 553.41 121.436 A 5.833 5.833 0 0 1 553.418 121.387 L 558.301 92.188 A 109.903 109.903 0 0 0 558.685 89.639 Q 559.059 86.934 559.15 85.059 A 23.218 23.218 0 0 0 559.18 83.936 A 13.235 13.235 0 0 0 559.087 82.293 Q 558.685 79.102 556.543 79.102 A 2.928 2.928 0 0 0 554.78 79.995 Q 550.941 83.345 543.115 99.268 A 369.396 369.396 0 0 0 541.039 103.554 Q 538.195 109.529 536.857 113.02 A 53.44 53.44 0 0 0 536.841 113.062 A 281.256 281.256 0 0 1 536.006 115.221 Q 534.839 118.201 534.18 119.629 A 19.717 19.717 0 0 1 533.633 120.728 Q 533.034 121.838 532.446 122.51 A 3.405 3.405 0 0 1 531.85 123.056 A 2.229 2.229 0 0 1 530.542 123.486 A 3.28 3.28 0 0 1 530.13 123.463 Q 529.7 123.408 529.48 123.226 A 0.602 0.602 0 0 1 529.297 122.974 Q 529.102 122.461 529.102 121.118 Q 529.102 119.945 532.102 103.228 A 3381.292 3381.292 0 0 1 533.032 98.071 A 2022.289 2022.289 0 0 1 533.963 92.967 Q 536.758 77.756 537.455 75.555 A 1.97 1.97 0 0 1 537.573 75.244 A 9.322 9.322 0 0 1 537.871 74.733 Q 538.306 74.042 538.672 73.804 A 1.411 1.411 0 0 1 539.008 73.65 Q 539.375 73.532 539.952 73.499 A 8.39 8.39 0 0 1 540.43 73.486 A 2.637 2.637 0 0 1 541.336 73.635 A 2.262 2.262 0 0 1 542.407 74.463 A 5.243 5.243 0 0 1 542.765 75.023 Q 543.115 75.664 543.115 76.196 A 5.756 5.756 0 0 1 542.92 77.686 A 28.158 28.158 0 0 1 542.63 78.715 Q 542.481 79.21 542.298 79.771 A 63.941 63.941 0 0 1 541.895 80.957 A 68.675 68.675 0 0 0 540.449 85.682 Q 539.1 90.662 537.82 97.585 A 251.727 251.727 0 0 0 537.402 99.902 Z M 805.371 99.902 L 804.346 105.811 A 112.631 112.631 0 0 0 805.229 103.919 Q 805.615 103.075 806.028 102.138 A 211.266 211.266 0 0 0 806.885 100.171 Q 807.969 97.647 809.855 93.45 A 1125.67 1125.67 0 0 1 811.084 90.723 A 71.601 71.601 0 0 1 814.761 83.631 A 58.809 58.809 0 0 1 817.285 79.736 A 29.447 29.447 0 0 1 819.28 77.148 Q 821.466 74.64 823.498 73.806 A 5.214 5.214 0 0 1 825.488 73.389 A 5.567 5.567 0 0 1 830.804 76.616 Q 832.04 79.021 832.164 83.218 A 32.495 32.495 0 0 1 832.178 84.18 Q 832.178 86.934 831.648 90.614 A 84.478 84.478 0 0 1 831.03 94.287 A 2829.555 2829.555 0 0 1 829.822 100.623 A 3655.297 3655.297 0 0 1 828.491 107.52 Q 827.1 114.697 826.953 119.385 L 826.367 122.07 A 5.756 5.756 0 0 1 826.345 122.598 Q 826.283 123.268 826.05 123.608 A 0.703 0.703 0 0 1 825.776 123.83 Q 825.343 124.047 824.377 124.07 A 9.906 9.906 0 0 1 824.146 124.072 Q 822.709 124.072 821.993 123.592 A 1.757 1.757 0 0 1 821.851 123.486 Q 821.154 122.91 821.379 121.436 A 5.833 5.833 0 0 1 821.387 121.387 L 826.27 92.188 A 109.903 109.903 0 0 0 826.654 89.639 Q 827.028 86.934 827.119 85.059 A 23.218 23.218 0 0 0 827.149 83.936 A 13.235 13.235 0 0 0 827.056 82.293 Q 826.654 79.102 824.512 79.102 A 2.928 2.928 0 0 0 822.749 79.995 Q 818.91 83.345 811.084 99.268 A 369.396 369.396 0 0 0 809.007 103.554 Q 806.163 109.529 804.826 113.02 A 53.44 53.44 0 0 0 804.81 113.062 A 281.256 281.256 0 0 1 803.975 115.221 Q 802.808 118.201 802.149 119.629 A 19.717 19.717 0 0 1 801.602 120.728 Q 801.003 121.838 800.415 122.51 A 3.405 3.405 0 0 1 799.819 123.056 A 2.229 2.229 0 0 1 798.511 123.486 A 3.28 3.28 0 0 1 798.099 123.463 Q 797.668 123.408 797.449 123.226 A 0.602 0.602 0 0 1 797.266 122.974 Q 797.07 122.461 797.07 121.118 Q 797.07 119.945 800.071 103.228 A 3381.292 3381.292 0 0 1 801.001 98.071 A 2022.289 2022.289 0 0 1 801.932 92.967 Q 804.727 77.756 805.423 75.555 A 1.97 1.97 0 0 1 805.542 75.244 A 9.322 9.322 0 0 1 805.84 74.733 Q 806.275 74.042 806.641 73.804 A 1.411 1.411 0 0 1 806.977 73.65 Q 807.344 73.532 807.92 73.499 A 8.39 8.39 0 0 1 808.399 73.486 A 2.637 2.637 0 0 1 809.305 73.635 A 2.262 2.262 0 0 1 810.376 74.463 A 5.243 5.243 0 0 1 810.734 75.023 Q 811.084 75.664 811.084 76.196 A 5.756 5.756 0 0 1 810.889 77.686 A 28.158 28.158 0 0 1 810.599 78.715 Q 810.45 79.21 810.266 79.771 A 63.941 63.941 0 0 1 809.863 80.957 A 68.675 68.675 0 0 0 808.418 85.682 Q 807.069 90.662 805.788 97.585 A 251.727 251.727 0 0 0 805.371 99.902 Z M 490.967 82.471 L 492.481 76.416 Q 492.91 74.879 493.611 74.054 A 2.521 2.521 0 0 1 495.606 73.096 A 1.477 1.477 0 0 1 496.9 73.81 Q 497.159 74.201 497.315 74.805 A 8.581 8.581 0 0 1 496.788 77.097 A 7.882 7.882 0 0 1 496.533 77.686 A 10.847 10.847 0 0 0 495.822 79.637 A 12.955 12.955 0 0 0 495.606 80.615 A 500.298 500.298 0 0 0 493.827 90.021 Q 491.309 104.149 491.309 110.205 L 491.211 114.893 A 18.565 18.565 0 0 0 491.25 116.151 Q 491.379 118.034 491.933 118.626 A 0.792 0.792 0 0 0 492.529 118.896 A 3.279 3.279 0 0 0 494.45 118.037 Q 498.05 115.191 504.44 102.929 A 220.941 220.941 0 0 0 505.469 100.928 A 260.048 260.048 0 0 0 506.217 99.472 Q 507.36 97.23 508.837 94.243 A 727.352 727.352 0 0 0 508.936 94.043 Q 510.986 89.893 512.158 87.72 A 81.387 81.387 0 0 0 513.654 84.813 A 68.698 68.698 0 0 0 514.258 83.545 A 52.659 52.659 0 0 1 515.667 80.674 Q 517.882 76.515 519.704 75.458 A 2.383 2.383 0 0 1 520.899 75.098 Q 522.583 75.098 522.607 76.924 A 4.05 4.05 0 0 1 522.608 76.978 Q 522.608 78.793 520.831 82.863 A 56.12 56.12 0 0 1 520.703 83.154 Q 518.799 87.451 517.578 91.943 A 125.009 125.009 0 0 0 513.233 118.164 L 513.233 118.701 A 5.588 5.588 0 0 0 513.285 119.495 Q 513.342 119.893 513.462 120.213 A 2.159 2.159 0 0 0 513.843 120.874 A 96.572 96.572 0 0 0 514.128 121.204 Q 514.507 121.639 514.724 121.875 A 12.496 12.496 0 0 0 514.746 121.899 A 0.785 0.785 0 0 1 514.891 122.14 Q 514.991 122.386 515.023 122.788 A 5.336 5.336 0 0 1 515.039 123.218 A 1.806 1.806 0 0 1 514.696 124.261 Q 514.412 124.673 513.892 125.049 A 5.923 5.923 0 0 1 513.204 125.482 Q 512.837 125.677 512.495 125.777 A 2.434 2.434 0 0 1 511.817 125.879 Q 509.069 125.879 508.856 119.066 A 38.237 38.237 0 0 1 508.838 117.871 A 57.838 57.838 0 0 1 509.689 108.121 A 64.059 64.059 0 0 1 509.839 107.275 A 490.596 490.596 0 0 1 511.914 96.68 Q 510.108 99.902 508.496 103.296 A 109.411 109.411 0 0 1 507.435 105.473 Q 506.465 107.403 505.664 108.765 A 117.452 117.452 0 0 0 505.084 109.761 Q 504.315 111.099 503.785 112.113 A 40.34 40.34 0 0 0 503.711 112.256 Q 497.909 123.32 492.873 124.193 A 5.009 5.009 0 0 1 492.017 124.268 Q 487.222 124.268 486.688 115.823 A 35.721 35.721 0 0 1 486.621 113.574 A 103.388 103.388 0 0 1 487.453 100.868 Q 488.522 92.249 490.967 82.471 Z M 334.277 29.688 L 334.082 30.371 A 550.606 550.606 0 0 1 331.391 46.509 A 400.739 400.739 0 0 1 328.491 60.938 A 2183.366 2183.366 0 0 0 325.665 73.889 A 1605.084 1605.084 0 0 0 323.193 85.596 A 90.971 90.971 0 0 1 324.671 83.038 Q 326.795 79.504 328.369 77.783 A 20.863 20.863 0 0 1 330.68 75.59 Q 333.665 73.193 336.524 73.193 A 8.198 8.198 0 0 1 339.203 73.61 A 6.692 6.692 0 0 1 342.578 76.221 Q 344.678 79.248 344.678 82.568 A 56.63 56.63 0 0 1 344.359 88.369 Q 343.826 93.521 342.407 99.731 A 72.586 72.586 0 0 1 340.285 107.245 Q 338.53 112.326 336.182 116.211 A 26.421 26.421 0 0 1 333.627 119.821 Q 329.663 124.463 324.902 124.463 A 8.036 8.036 0 0 1 321.746 123.868 Q 319.457 122.901 318.067 120.361 Q 315.82 116.26 315.82 110.889 A 69.669 69.669 0 0 1 316.4 101.788 A 63.55 63.55 0 0 1 316.577 100.537 A 1696.342 1696.342 0 0 1 317.365 95.41 A 2006.818 2006.818 0 0 1 318.213 89.99 A 732.425 732.425 0 0 1 319.074 84.662 A 555.305 555.305 0 0 1 319.898 79.81 A 787.137 787.137 0 0 1 320.685 75.372 A 615.402 615.402 0 0 1 321.436 71.289 A 452.344 452.344 0 0 1 322.901 63.812 A 415.736 415.736 0 0 1 322.925 63.696 Q 323.548 60.661 324.982 53.721 A 30689.306 30689.306 0 0 1 325.635 50.562 A 592.924 592.924 0 0 0 327.498 41.141 Q 328.572 35.483 329.688 29.102 Q 330.124 28.254 330.655 27.852 A 1.681 1.681 0 0 1 331.69 27.49 A 4.443 4.443 0 0 1 332.658 27.586 Q 334.277 27.949 334.277 29.688 Z M 630.274 61.865 A 59.077 59.077 0 0 0 629.351 50.91 Q 625.686 31.592 607.471 31.592 A 39.15 39.15 0 0 0 603.003 31.836 A 30.01 30.01 0 0 0 598.975 32.568 A 547.628 547.628 0 0 0 591.742 57.351 Q 588.332 70.084 585.069 84.329 A 931.333 931.333 0 0 0 582.91 93.994 A 1726.156 1726.156 0 0 0 580.213 106.567 A 2174.452 2174.452 0 0 0 577.393 120.166 A 64.231 64.231 0 0 0 590.914 118.814 A 45.979 45.979 0 0 0 606.787 112.28 A 47.706 47.706 0 0 0 624.487 91.162 A 69.562 69.562 0 0 0 629.956 69.24 A 84.053 84.053 0 0 0 630.274 61.865 Z M 133.496 73.389 L 140.723 73.584 A 50.252 50.252 0 0 0 140.873 72.757 Q 140.937 72.388 141.003 71.978 A 96.323 96.323 0 0 0 141.138 71.118 Q 141.358 69.678 141.919 66.919 A 26.161 26.161 0 0 1 142.741 63.824 A 21.365 21.365 0 0 1 143.482 61.914 Q 143.991 60.771 144.658 60.21 A 2.176 2.176 0 0 1 146.094 59.668 A 2.052 2.052 0 0 1 146.761 59.767 Q 147.668 60.079 147.704 61.368 A 3.873 3.873 0 0 1 147.705 61.475 L 147.705 62.109 A 268.018 268.018 0 0 0 146.399 67.981 A 217.604 217.604 0 0 0 145.313 73.486 L 152.49 73.486 A 39.434 39.434 0 0 1 153.815 73.507 Q 156.459 73.596 157.153 74.072 Q 158.008 74.658 158.008 75.537 A 2.048 2.048 0 0 1 157.661 76.732 Q 157.176 77.434 156.011 77.756 A 5.507 5.507 0 0 1 155.908 77.783 A 5.179 5.179 0 0 1 155.285 77.904 Q 154.073 78.076 151.587 78.076 A 83.036 83.036 0 0 1 147.756 77.983 A 105.853 105.853 0 0 1 144.531 77.783 A 133.725 133.725 0 0 1 143.972 80.539 Q 142.854 85.802 140.405 96.045 Q 137.807 106.916 137.32 111.517 A 17.462 17.462 0 0 0 137.207 113.306 A 27.131 27.131 0 0 0 137.249 114.877 Q 137.399 117.455 138.086 118.408 A 1.898 1.898 0 0 0 138.899 118.979 Q 139.221 119.102 139.624 119.153 A 4.859 4.859 0 0 0 140.235 119.189 A 4.34 4.34 0 0 0 141.636 118.971 A 3.772 3.772 0 0 0 142.822 118.311 A 14.587 14.587 0 0 0 144.776 116.382 Q 145.654 115.332 146.509 114.453 A 3.298 3.298 0 0 1 147.159 113.926 A 2.333 2.333 0 0 1 148.389 113.574 A 2.882 2.882 0 0 1 149.181 113.673 Q 150.391 114.02 150.391 115.576 Q 150.391 116.481 148.813 118.431 A 25.445 25.445 0 0 1 148.364 118.97 A 33.982 33.982 0 0 1 146.919 120.561 Q 146.239 121.26 145.6 121.82 A 15.585 15.585 0 0 1 144.629 122.607 A 5.625 5.625 0 0 1 142.983 123.429 Q 142.211 123.678 141.269 123.788 A 13.924 13.924 0 0 1 139.649 123.877 Q 137.056 123.877 135.752 123.172 A 2.934 2.934 0 0 1 135.156 122.754 A 6.838 6.838 0 0 1 133.272 119.892 Q 132.617 118.081 132.617 115.576 Q 132.617 113.037 133.203 109.57 L 134.131 103.906 Q 134.769 101.019 135.314 98.629 A 510.944 510.944 0 0 1 135.791 96.558 A 944.165 944.165 0 0 0 136.395 93.947 Q 136.759 92.361 137.061 91.016 Q 137.598 88.623 138.477 84.79 A 177.496 177.496 0 0 0 139.57 79.693 A 150.43 150.43 0 0 0 139.99 77.49 A 59.569 59.569 0 0 0 136.804 77.571 Q 135.296 77.652 133.975 77.814 A 31.217 31.217 0 0 0 132.813 77.979 A 3.99 3.99 0 0 1 132.057 77.837 Q 130.811 77.464 130.811 76.27 A 2.372 2.372 0 0 1 131.005 75.351 Q 131.142 75.022 131.376 74.687 A 4.758 4.758 0 0 1 131.543 74.463 A 2.809 2.809 0 0 1 133.458 73.393 A 3.605 3.605 0 0 1 133.496 73.389 Z M 165.088 73.389 L 172.315 73.584 A 50.252 50.252 0 0 0 172.464 72.757 Q 172.528 72.388 172.595 71.978 A 96.323 96.323 0 0 0 172.73 71.118 Q 172.949 69.678 173.511 66.919 A 26.161 26.161 0 0 1 174.333 63.824 A 21.365 21.365 0 0 1 175.073 61.914 Q 175.583 60.771 176.25 60.21 A 2.176 2.176 0 0 1 177.686 59.668 A 2.052 2.052 0 0 1 178.352 59.767 Q 179.26 60.079 179.296 61.368 A 3.873 3.873 0 0 1 179.297 61.475 L 179.297 62.109 A 268.018 268.018 0 0 0 177.991 67.981 A 217.604 217.604 0 0 0 176.904 73.486 L 184.082 73.486 A 39.434 39.434 0 0 1 185.407 73.507 Q 188.051 73.596 188.745 74.072 Q 189.6 74.658 189.6 75.537 A 2.048 2.048 0 0 1 189.253 76.732 Q 188.768 77.434 187.603 77.756 A 5.507 5.507 0 0 1 187.5 77.783 A 5.179 5.179 0 0 1 186.877 77.904 Q 185.665 78.076 183.179 78.076 A 83.036 83.036 0 0 1 179.348 77.983 A 105.853 105.853 0 0 1 176.123 77.783 A 133.725 133.725 0 0 1 175.564 80.539 Q 174.446 85.802 171.997 96.045 Q 169.398 106.916 168.911 111.517 A 17.462 17.462 0 0 0 168.799 113.306 A 27.131 27.131 0 0 0 168.841 114.877 Q 168.991 117.455 169.678 118.408 A 1.898 1.898 0 0 0 170.491 118.979 Q 170.813 119.102 171.216 119.153 A 4.859 4.859 0 0 0 171.826 119.189 A 4.34 4.34 0 0 0 173.228 118.971 A 3.772 3.772 0 0 0 174.414 118.311 A 14.587 14.587 0 0 0 176.367 116.382 Q 177.246 115.332 178.101 114.453 A 3.298 3.298 0 0 1 178.751 113.926 A 2.333 2.333 0 0 1 179.981 113.574 A 2.882 2.882 0 0 1 180.773 113.673 Q 181.983 114.02 181.983 115.576 Q 181.983 116.481 180.405 118.431 A 25.445 25.445 0 0 1 179.956 118.97 A 33.982 33.982 0 0 1 178.511 120.561 Q 177.831 121.26 177.191 121.82 A 15.585 15.585 0 0 1 176.221 122.607 A 5.625 5.625 0 0 1 174.574 123.429 Q 173.803 123.678 172.861 123.788 A 13.924 13.924 0 0 1 171.24 123.877 Q 168.648 123.877 167.344 123.172 A 2.934 2.934 0 0 1 166.748 122.754 A 6.838 6.838 0 0 1 164.864 119.892 Q 164.209 118.081 164.209 115.576 Q 164.209 113.037 164.795 109.57 L 165.723 103.906 Q 166.361 101.019 166.906 98.629 A 510.944 510.944 0 0 1 167.383 96.558 A 944.165 944.165 0 0 0 167.986 93.947 Q 168.35 92.361 168.652 91.016 Q 169.19 88.623 170.068 84.79 A 177.496 177.496 0 0 0 171.162 79.693 A 150.43 150.43 0 0 0 171.582 77.49 A 59.569 59.569 0 0 0 168.395 77.571 Q 166.887 77.652 165.567 77.814 A 31.217 31.217 0 0 0 164.404 77.979 A 3.99 3.99 0 0 1 163.649 77.837 Q 162.402 77.464 162.402 76.27 A 2.372 2.372 0 0 1 162.597 75.351 Q 162.734 75.022 162.968 74.687 A 4.758 4.758 0 0 1 163.135 74.463 A 2.809 2.809 0 0 1 165.05 73.393 A 3.605 3.605 0 0 1 165.088 73.389 Z M 712.256 81.592 L 712.256 81.982 A 0.691 0.691 0 0 1 712.237 82.083 Q 712.123 82.576 711.327 85.36 A 796.797 796.797 0 0 1 711.035 86.377 A 48.769 48.769 0 0 0 710.404 88.855 Q 709.745 91.709 709 96.002 A 297.902 297.902 0 0 0 708.252 100.537 Q 707.06 108.102 706.777 113.989 A 72.985 72.985 0 0 0 706.69 117.48 Q 707.067 117.732 707.553 118.038 A 58.481 58.481 0 0 0 707.715 118.14 Q 708.301 118.506 709.18 119.263 A 2.79 2.79 0 0 1 709.715 119.868 A 2.138 2.138 0 0 1 710.059 121.045 A 2.88 2.88 0 0 1 709.424 122.876 A 2.065 2.065 0 0 1 708.013 123.657 A 3.034 3.034 0 0 1 707.617 123.682 A 4.697 4.697 0 0 1 704.808 122.728 Q 704.019 122.156 703.296 121.24 A 9.199 9.199 0 0 1 701.857 118.722 A 7.899 7.899 0 0 1 701.367 115.967 A 36.851 36.851 0 0 1 701.575 112.366 Q 702.169 106.424 704.464 95.98 A 339.724 339.724 0 0 1 704.688 94.971 A 81.279 81.279 0 0 1 695.946 109.186 A 92.396 92.396 0 0 1 693.945 111.719 A 220.195 220.195 0 0 1 691.257 114.947 Q 687.652 119.184 685.677 120.942 A 12.037 12.037 0 0 1 684.839 121.631 Q 682.324 123.486 679.395 123.486 Q 673.682 123.486 673.682 116.309 A 24.667 24.667 0 0 1 674.314 110.99 Q 675.52 105.547 679.028 98.706 A 81.528 81.528 0 0 1 686.65 86.512 A 69.288 69.288 0 0 1 691.602 80.688 A 52.375 52.375 0 0 1 694.636 77.73 Q 699.827 73.096 703.394 73.096 A 7.728 7.728 0 0 1 705.318 73.316 Q 708.108 74.034 708.594 77.1 A 28.598 28.598 0 0 1 708.824 78.93 A 33.376 33.376 0 0 1 708.887 79.688 A 1.711 1.711 0 0 1 709.529 79.432 A 2.349 2.349 0 0 1 709.961 79.395 Q 712.256 79.395 712.256 81.592 Z M 73.828 123.291 L 76.074 111.377 A 1358.966 1358.966 0 0 0 76.883 107.143 Q 77.874 101.905 78.359 99.053 A 146.156 146.156 0 0 0 78.467 98.413 A 856.112 856.112 0 0 1 79.144 94.385 A 1132.722 1132.722 0 0 1 79.907 89.966 Q 80.524 86.433 82.128 80.539 A 269.719 269.719 0 0 1 83.203 76.709 A 1.588 1.588 0 0 1 83.142 76.526 Q 83.117 76.431 83.109 76.346 A 0.841 0.841 0 0 1 83.106 76.27 L 83.106 75.781 A 4.753 4.753 0 0 1 83.282 74.445 A 3.347 3.347 0 0 1 84.912 72.412 A 2.196 2.196 0 0 1 85.55 72.131 A 1.958 1.958 0 0 1 86.035 72.07 Q 87.788 72.07 88.078 74.18 A 6.775 6.775 0 0 1 88.135 75.098 A 7.449 7.449 0 0 1 88.052 76.114 Q 87.817 77.783 86.919 80.767 A 81.635 81.635 0 0 1 86.719 81.421 Q 85.303 85.986 84.522 89.893 A 123.759 123.759 0 0 0 84.883 89.294 Q 85.455 88.342 86.206 87.061 A 49.953 49.953 0 0 1 86.78 86.108 Q 87.75 84.534 89.38 82.08 A 30.907 30.907 0 0 1 92.898 77.732 A 37.247 37.247 0 0 1 94.849 75.854 Q 97.562 73.423 100.374 72.993 A 8.013 8.013 0 0 1 101.587 72.9 A 10.217 10.217 0 0 1 103.624 73.091 Q 105.608 73.495 106.836 74.756 A 2.088 2.088 0 0 1 107.518 76.276 A 2.723 2.723 0 0 1 107.52 76.367 A 2.117 2.117 0 0 1 107.066 77.67 A 3.162 3.162 0 0 1 106.641 78.125 Q 105.868 78.812 105.057 78.895 A 2.192 2.192 0 0 1 104.834 78.906 A 3.454 3.454 0 0 1 103.305 78.542 A 4.221 4.221 0 0 1 103.027 78.394 A 3.791 3.791 0 0 0 101.141 77.881 A 4.463 4.463 0 0 0 101.074 77.881 A 2.08 2.08 0 0 0 100.458 77.991 Q 99.515 78.288 97.99 79.393 A 24.637 24.637 0 0 0 97.656 79.639 Q 89.256 85.752 83.509 102.682 A 116.294 116.294 0 0 0 82.276 106.543 Q 80.783 111.516 80.38 113.622 A 14.584 14.584 0 0 0 80.322 113.94 A 247.443 247.443 0 0 1 80.158 114.906 Q 79.92 116.284 79.736 117.236 A 32.691 32.691 0 0 1 79.132 119.908 Q 77.997 124.034 76.209 124.88 A 2.23 2.23 0 0 1 75.244 125.098 A 1.561 1.561 0 0 1 74.61 124.978 Q 73.828 124.634 73.828 123.291 Z M 640.576 123.291 L 642.822 111.377 A 1358.966 1358.966 0 0 0 643.631 107.143 Q 644.622 101.905 645.108 99.053 A 146.156 146.156 0 0 0 645.215 98.413 A 856.112 856.112 0 0 1 645.892 94.385 A 1132.722 1132.722 0 0 1 646.655 89.966 Q 647.272 86.433 648.877 80.539 A 269.719 269.719 0 0 1 649.951 76.709 A 1.588 1.588 0 0 1 649.89 76.526 Q 649.865 76.431 649.857 76.346 A 0.841 0.841 0 0 1 649.854 76.27 L 649.854 75.781 A 4.753 4.753 0 0 1 650.03 74.445 A 3.347 3.347 0 0 1 651.66 72.412 A 2.196 2.196 0 0 1 652.298 72.131 A 1.958 1.958 0 0 1 652.783 72.07 Q 654.536 72.07 654.826 74.18 A 6.775 6.775 0 0 1 654.883 75.098 A 7.449 7.449 0 0 1 654.8 76.114 Q 654.565 77.783 653.667 80.767 A 81.635 81.635 0 0 1 653.467 81.421 Q 652.051 85.986 651.27 89.893 A 123.759 123.759 0 0 0 651.631 89.294 Q 652.203 88.342 652.954 87.061 A 49.953 49.953 0 0 1 653.528 86.108 Q 654.498 84.534 656.128 82.08 A 30.907 30.907 0 0 1 659.647 77.732 A 37.247 37.247 0 0 1 661.597 75.854 Q 664.31 73.423 667.122 72.993 A 8.013 8.013 0 0 1 668.335 72.9 A 10.217 10.217 0 0 1 670.373 73.091 Q 672.356 73.495 673.584 74.756 A 2.088 2.088 0 0 1 674.266 76.276 A 2.723 2.723 0 0 1 674.268 76.367 A 2.117 2.117 0 0 1 673.814 77.67 A 3.162 3.162 0 0 1 673.389 78.125 Q 672.616 78.812 671.805 78.895 A 2.192 2.192 0 0 1 671.582 78.906 A 3.454 3.454 0 0 1 670.053 78.542 A 4.221 4.221 0 0 1 669.776 78.394 A 3.791 3.791 0 0 0 667.889 77.881 A 4.463 4.463 0 0 0 667.822 77.881 A 2.08 2.08 0 0 0 667.206 77.991 Q 666.263 78.288 664.738 79.393 A 24.637 24.637 0 0 0 664.404 79.639 Q 656.004 85.752 650.257 102.682 A 116.294 116.294 0 0 0 649.024 106.543 Q 647.532 111.516 647.128 113.622 A 14.584 14.584 0 0 0 647.07 113.94 A 247.443 247.443 0 0 1 646.906 114.906 Q 646.668 116.284 646.485 117.236 A 32.691 32.691 0 0 1 645.88 119.908 Q 644.745 124.034 642.957 124.88 A 2.23 2.23 0 0 1 641.992 125.098 A 1.561 1.561 0 0 1 641.358 124.978 Q 640.576 124.634 640.576 123.291 Z M 198.193 104.297 L 197.998 111.475 Q 197.998 117.029 200.219 118.91 A 4.268 4.268 0 0 0 203.076 119.873 Q 205.773 119.873 208.731 118.33 A 17.938 17.938 0 0 0 208.814 118.286 Q 211.817 116.699 213.135 115.991 Q 214.453 115.283 215.186 115.283 A 2.322 2.322 0 0 1 215.872 115.376 Q 216.895 115.693 216.895 117.09 A 2.325 2.325 0 0 1 216.444 118.383 Q 215.485 119.806 212.491 121.443 A 32.442 32.442 0 0 1 211.768 121.826 A 34.254 34.254 0 0 1 208.874 123.159 Q 205.912 124.348 203.652 124.453 A 9.287 9.287 0 0 1 203.223 124.463 A 16.769 16.769 0 0 1 201.435 124.374 Q 199.512 124.167 198.322 123.479 A 4.634 4.634 0 0 1 198.096 123.34 A 8.088 8.088 0 0 1 195.813 121.049 A 9.919 9.919 0 0 1 195.313 120.215 A 17.019 17.019 0 0 1 193.622 115.348 Q 193.226 113.293 193.213 110.943 A 28.818 28.818 0 0 1 193.213 110.791 A 58.024 58.024 0 0 1 195.147 95.663 A 53.423 53.423 0 0 1 196.143 92.383 A 50.595 50.595 0 0 1 199.318 84.929 A 37.362 37.362 0 0 1 203.955 78.052 Q 207.5 73.922 211.458 72.79 A 11.022 11.022 0 0 1 214.502 72.363 Q 217.356 72.363 219.061 74.599 A 7.215 7.215 0 0 1 219.263 74.878 A 9.803 9.803 0 0 1 220.925 79.459 A 12.482 12.482 0 0 1 220.996 80.811 A 20.316 20.316 0 0 1 220.321 86.163 A 16.037 16.037 0 0 1 217.651 91.65 Q 214.307 96.094 209.424 98.926 A 75.42 75.42 0 0 1 203.823 101.852 A 100.537 100.537 0 0 1 198.193 104.297 Z M 788.258 77.295 A 7.759 7.759 0 0 0 780.86 72.998 A 13.909 13.909 0 0 0 773.044 75.437 A 20.755 20.755 0 0 0 769.312 78.662 A 36.245 36.245 0 0 0 764.612 85.046 A 46.437 46.437 0 0 0 761.011 92.871 Q 757.959 101.416 757.959 110.498 A 19.501 19.501 0 0 0 760.352 119.971 A 7.88 7.88 0 0 0 765.119 123.936 A 10.83 10.83 0 0 0 768.262 124.365 A 10.186 10.186 0 0 0 771.243 123.918 A 12.111 12.111 0 0 0 774.317 122.461 Q 777.976 120.084 780.955 115.783 A 40.266 40.266 0 0 0 784.082 110.352 A 79.435 79.435 0 0 0 784.787 108.844 Q 787.179 103.587 788.491 98.62 A 45.582 45.582 0 0 0 790.088 86.963 Q 790.088 80.744 788.258 77.295 Z M 439.014 112.842 L 438.184 116.162 A 84.734 84.734 0 0 0 437.489 119.164 A 76.61 76.61 0 0 0 437.402 119.58 A 13.481 13.481 0 0 0 438.244 119.674 Q 439.166 119.752 440.473 119.77 A 60.398 60.398 0 0 0 441.309 119.775 A 64.157 64.157 0 0 0 450.57 119.151 Q 455.27 118.464 459.1 117.021 A 27.712 27.712 0 0 0 465.894 113.379 A 21.53 21.53 0 0 0 471.916 106.732 Q 474.512 102.158 474.512 96.289 A 15.783 15.783 0 0 0 470.98 86.382 A 23.741 23.741 0 0 0 467.676 82.959 Q 460.84 77.1 452.49 77.1 Q 450.342 77.1 447.217 76.904 A 7569.223 7569.223 0 0 0 445.565 84.088 Q 442.256 98.514 441.284 103.076 Q 440.165 108.331 439.794 109.801 A 17.408 17.408 0 0 1 439.746 109.985 A 194.344 194.344 0 0 0 439.392 111.346 A 256.44 256.44 0 0 0 439.014 112.842 Z M 117.139 79.102 L 117.139 78.125 Q 117.139 77.574 116.663 75.755 A 64.961 64.961 0 0 0 116.406 74.805 A 3.373 3.373 0 0 1 117.16 72.677 A 4.257 4.257 0 0 1 117.236 72.583 A 2.957 2.957 0 0 1 117.956 71.944 A 2.439 2.439 0 0 1 119.263 71.582 A 1.805 1.805 0 0 1 120.533 72.112 Q 120.921 72.478 121.24 73.096 A 7.099 7.099 0 0 1 122.02 76.275 A 8.278 8.278 0 0 1 122.022 76.416 A 8.766 8.766 0 0 1 121.886 77.568 Q 121.253 81.499 117.66 97.015 A 1950.572 1950.572 0 0 1 117.432 97.998 Q 112.842 117.773 112.842 118.823 Q 112.842 119.716 113.548 119.849 A 1.456 1.456 0 0 0 113.818 119.873 Q 114.453 119.873 115.625 118.628 A 7.591 7.591 0 0 1 116.156 118.113 Q 116.713 117.626 117.182 117.464 A 1.362 1.362 0 0 1 117.627 117.383 Q 119.238 117.383 119.238 119.409 A 2.829 2.829 0 0 1 118.562 121.21 Q 117.855 122.092 116.407 122.849 A 12.192 12.192 0 0 1 116.211 122.949 A 29.653 29.653 0 0 1 114.883 123.576 Q 112.863 124.463 111.817 124.463 A 2.847 2.847 0 0 1 109.1 122.827 Q 108.399 121.472 108.399 118.994 A 6.491 6.491 0 0 1 108.5 117.882 Q 108.587 117.385 108.747 116.844 A 11.473 11.473 0 0 1 108.862 116.479 Q 109.281 115.222 109.74 113.089 A 69.791 69.791 0 0 0 109.839 112.622 A 243.846 243.846 0 0 1 110.123 111.278 Q 110.444 109.777 110.882 107.802 A 833.819 833.819 0 0 1 111.304 105.908 A 2519.137 2519.137 0 0 0 113.007 98.25 A 2781.008 2781.008 0 0 0 113.257 97.119 Q 114.258 92.578 115.698 86.108 A 629.497 629.497 0 0 0 116.036 84.584 Q 117.077 79.854 117.135 79.169 A 0.819 0.819 0 0 0 117.139 79.102 Z M 472.803 50.537 A 27.897 27.897 0 0 0 472.352 45.351 Q 471.361 40.118 468.189 36.963 A 16.207 16.207 0 0 0 458.923 32.414 A 22.076 22.076 0 0 0 456.201 32.178 A 104.024 104.024 0 0 0 454.692 37.769 Q 453.05 44.53 451.489 53.979 A 1210.955 1210.955 0 0 1 450.556 59.557 Q 449.36 66.587 448.611 70.359 A 97.516 97.516 0 0 1 448.193 72.363 A 31.969 31.969 0 0 0 457.913 70.251 A 27.539 27.539 0 0 0 465.65 65.601 A 20.848 20.848 0 0 0 470.602 59.61 A 18.836 18.836 0 0 0 472.803 50.537 Z M 724.536 111.109 A 33.462 33.462 0 0 0 724.512 112.378 A 20.367 20.367 0 0 0 724.64 114.77 Q 724.925 117.171 725.85 118.349 A 2.864 2.864 0 0 0 728.223 119.482 A 4.458 4.458 0 0 0 730.365 118.867 Q 732.804 117.528 735.707 113.272 A 42.487 42.487 0 0 0 735.767 113.184 A 47.335 47.335 0 0 0 740.033 105.317 A 62.588 62.588 0 0 0 742.603 98.12 A 1422.71 1422.71 0 0 0 743.807 93.982 Q 744.968 89.966 745.798 86.989 A 372.103 372.103 0 0 0 746.485 84.497 Q 747.566 80.51 748.089 78.612 A 342.12 342.12 0 0 1 748.291 77.881 A 5.555 5.555 0 0 0 745.269 76.609 A 7.332 7.332 0 0 0 744.434 76.563 A 7.859 7.859 0 0 0 740.721 77.559 Q 738.238 78.879 735.696 81.949 A 30.741 30.741 0 0 0 735.352 82.373 Q 730.713 88.184 727.612 96.729 Q 724.786 104.517 724.536 111.109 Z M 767.774 89.16 A 52.502 52.502 0 0 0 763.86 99.424 A 41.003 41.003 0 0 0 762.5 109.766 A 19.71 19.71 0 0 0 762.741 112.97 Q 763.464 117.346 766.358 119.141 A 4.837 4.837 0 0 0 768.578 119.855 A 5.946 5.946 0 0 0 769.043 119.873 A 4.586 4.586 0 0 0 771.219 119.265 Q 773.46 118.058 776.026 114.453 A 42.347 42.347 0 0 0 779.578 108.405 Q 780.998 105.483 782.185 102.081 A 70.06 70.06 0 0 0 782.52 101.099 A 64.664 64.664 0 0 0 784.021 95.909 Q 784.66 93.265 784.939 90.927 A 29.134 29.134 0 0 0 785.156 87.476 A 79.187 79.187 0 0 0 785.133 85.489 Q 785.033 81.503 784.497 80.273 A 7.979 7.979 0 0 0 784.077 79.437 Q 783.578 78.581 782.984 78.174 A 2.579 2.579 0 0 0 782.34 77.865 Q 781.68 77.644 780.684 77.599 A 11.821 11.821 0 0 0 780.151 77.588 Q 778.585 77.588 776.789 78.568 A 12.704 12.704 0 0 0 775.83 79.15 A 17.521 17.521 0 0 0 772.213 82.324 Q 770.755 83.979 769.425 86.155 A 39.242 39.242 0 0 0 767.774 89.16 Z M 678.662 116.504 A 3.151 3.151 0 0 0 678.727 117.175 Q 678.939 118.143 679.843 118.286 A 2.136 2.136 0 0 0 680.176 118.311 A 2.597 2.597 0 0 0 681.193 118.116 A 2.461 2.461 0 0 0 681.983 117.578 A 64.868 64.868 0 0 0 690.997 107.96 Q 695.844 101.677 700.098 93.506 A 451.229 451.229 0 0 0 701.166 91.425 Q 704.015 85.84 704.704 84.032 A 4.472 4.472 0 0 0 704.907 83.398 Q 705.176 82.08 705.176 81.152 A 3.413 3.413 0 0 0 704.688 79.395 A 1.921 1.921 0 0 0 704.325 78.939 A 1.444 1.444 0 0 0 703.32 78.564 A 2.474 2.474 0 0 0 702.765 78.637 Q 701.964 78.824 700.733 79.492 A 16.209 16.209 0 0 0 698.481 81.013 Q 696.203 82.812 693.427 85.945 A 80.235 80.235 0 0 0 691.48 88.232 Q 685.986 94.922 682.324 102.783 Q 679.732 108.347 678.975 112.908 A 21.968 21.968 0 0 0 678.662 116.504 Z M 320.899 110.889 A 27.228 27.228 0 0 0 321.028 113.668 Q 321.315 116.446 322.238 117.874 A 3.024 3.024 0 0 0 324.902 119.385 A 5.223 5.223 0 0 0 327.742 118.48 Q 329.534 117.332 331.302 114.727 A 26.972 26.972 0 0 0 332.129 113.428 Q 336.963 105.371 338.867 93.457 A 43.493 43.493 0 0 0 339.362 88.399 A 50.927 50.927 0 0 0 339.404 86.304 A 34.315 34.315 0 0 0 339.338 84.091 Q 339.191 81.825 338.721 80.298 Q 338.037 78.076 335.889 78.076 A 3.96 3.96 0 0 0 334.003 78.635 Q 331.636 79.934 328.46 84.256 A 56.68 56.68 0 0 0 327.539 85.547 A 39.03 39.03 0 0 0 323.963 91.811 Q 322.174 95.81 321.69 99.744 A 24.274 24.274 0 0 0 321.631 100.269 Q 320.926 107.249 320.9 110.632 A 33.036 33.036 0 0 0 320.899 110.889 Z M 735.693 137.5 L 737.207 129.59 A 210.37 210.37 0 0 1 730.068 135.242 A 193.866 193.866 0 0 1 729.956 135.327 A 81.846 81.846 0 0 0 725.961 138.537 A 66.131 66.131 0 0 0 723.535 140.723 A 30.71 30.71 0 0 0 720.585 143.958 Q 717.406 148.035 717.29 151.79 A 9.197 9.197 0 0 0 717.285 152.075 A 18.856 18.856 0 0 0 717.406 154.296 Q 717.816 157.743 719.629 158.838 A 3.45 3.45 0 0 0 720.458 159.198 Q 721.282 159.445 722.48 159.47 A 13.194 13.194 0 0 0 722.754 159.473 A 7.417 7.417 0 0 0 727.922 157.368 Q 728.931 156.436 729.822 155.092 A 16.345 16.345 0 0 0 730.005 154.81 A 20.966 20.966 0 0 0 731.468 151.979 Q 733.595 147.096 735.603 137.918 A 173.382 173.382 0 0 0 735.693 137.5 Z M 368.115 137.5 L 369.385 131.006 A 182.654 182.654 0 0 1 365.485 133.923 A 145.607 145.607 0 0 1 361.792 136.523 A 64.537 64.537 0 0 0 358.234 139.117 A 49.315 49.315 0 0 0 355.518 141.406 A 20.537 20.537 0 0 0 352.15 145.265 A 14.09 14.09 0 0 0 349.707 153.174 A 10.011 10.011 0 0 0 350.046 155.855 A 7.159 7.159 0 0 0 352.393 159.521 A 3.906 3.906 0 0 0 353.8 160.207 Q 354.358 160.358 355.018 160.391 A 7.561 7.561 0 0 0 355.396 160.4 A 5.347 5.347 0 0 0 358.562 159.358 A 6.771 6.771 0 0 0 358.862 159.131 A 12.06 12.06 0 0 0 360.722 157.258 A 15.348 15.348 0 0 0 361.719 155.859 A 24.804 24.804 0 0 0 363.201 153.147 A 30.707 30.707 0 0 0 363.989 151.318 A 69.872 69.872 0 0 0 365.772 146.24 A 87.122 87.122 0 0 0 366.742 142.853 A 74.106 74.106 0 0 0 367.114 141.382 A 169.423 169.423 0 0 1 367.388 140.269 Q 367.784 138.678 368.113 137.509 A 47.439 47.439 0 0 1 368.115 137.5 Z M 216.406 81.006 A 6.816 6.816 0 0 0 216.266 79.556 Q 215.808 77.462 213.855 77.153 A 4.615 4.615 0 0 0 213.135 77.1 Q 210.205 77.1 206.25 82.373 A 33.911 33.911 0 0 0 203.064 87.606 Q 201.168 91.411 199.707 96.289 A 36.174 36.174 0 0 0 199.423 97.275 Q 199.152 98.274 199.038 98.973 A 7.065 7.065 0 0 0 198.975 99.463 Q 200.928 98.389 202.979 97.412 A 76.998 76.998 0 0 0 206.983 95.361 A 25.769 25.769 0 0 0 210.525 93.019 Q 212.49 91.458 213.853 89.644 A 16.209 16.209 0 0 0 213.941 89.526 A 12.218 12.218 0 0 0 215.999 84.909 Q 216.381 83.221 216.405 81.268 A 21.439 21.439 0 0 0 216.406 81.006 Z M 125.164 56.442 A 4.147 4.147 0 0 0 124.024 56.299 A 4.396 4.396 0 0 0 122.022 56.781 A 5.778 5.778 0 0 0 120.752 57.666 A 6.81 6.81 0 0 0 120.486 57.92 Q 120.033 58.376 119.744 58.85 A 3.27 3.27 0 0 0 119.238 60.571 A 4.479 4.479 0 0 0 119.26 61.016 A 3.296 3.296 0 0 0 120.215 63.086 A 4.857 4.857 0 0 0 120.551 63.393 Q 121.359 64.063 122.168 64.063 A 11.926 11.926 0 0 0 122.909 64.04 A 9.551 9.551 0 0 0 123.975 63.916 Q 126.264 63.496 126.764 60.842 A 9.004 9.004 0 0 0 126.904 59.18 Q 126.904 56.94 125.164 56.442 Z" vector-effect="non-scaling-stroke"/></g></svg>